<svg width="19" height="19" viewBox="0 0 19 19" fill="none" xmlns="http://www.w3.org/2000/svg">
<path d="M5.93199 15.3997L6.23673 15.5813C7.35546 16.2478 8.62835 16.6003 9.91701 16.6003C13.8929 16.6003 17.127 13.3662 17.127 9.39036C17.127 5.41501 13.8929 2.1804 9.91701 2.1804C5.94217 2.1804 2.70704 5.41501 2.70704 9.39036C2.70704 10.7029 3.0718 11.9957 3.76217 13.1286L3.94888 13.4354L3.22849 16.1241L5.93199 15.3997ZM0.851624 18.5L2.14181 13.6857C1.41125 12.367 1.02716 10.8902 1.02716 9.39036C1.02716 4.48858 5.01472 0.5 9.91701 0.5C14.8193 0.5 18.8079 4.48858 18.8079 9.39036C18.8079 14.2927 14.8193 18.2812 9.91701 18.2812C8.44571 18.2812 6.99221 17.9093 5.69134 17.2042L0.851624 18.5Z" fill="white"/>
</svg>
