<svg aria-hidden="true" style="position: absolute; width: 0; height: 0; overflow: hidden;" version="1.1" xmlns="http://www.w3.org/2000/svg" xmlns:xlink="http://www.w3.org/1999/xlink">
<defs>
<symbol id="icon-whatsapp" viewBox="0 0 34 32">
<path fill="#fff" style="fill: var(--color1, #fff)" d="M9.193 26.488l0.542 0.323c1.989 1.185 4.252 1.812 6.543 1.812 7.068 0 12.818-5.75 12.818-12.818s-5.75-12.818-12.818-12.818c-7.066 0-12.818 5.75-12.818 12.818 0 2.333 0.648 4.632 1.876 6.646l0.332 0.545-1.281 4.78 4.806-1.288zM0.161 32l2.294-8.559c-1.299-2.344-1.982-4.97-1.982-7.636 0-8.714 7.089-15.805 15.804-15.805s15.806 7.091 15.806 15.805c0 8.715-7.091 15.806-15.806 15.806-2.616 0-5.2-0.661-7.512-1.915l-8.604 2.304z"></path>
<path fill="#fff" style="fill: var(--color1, #fff)" d="M22.157 18.004c-0.651-0.39-1.497-0.824-2.264-0.511-0.587 0.241-0.962 1.162-1.344 1.632-0.195 0.241-0.429 0.279-0.729 0.158-2.207-0.88-3.898-2.353-5.116-4.383-0.206-0.316-0.169-0.564 0.080-0.857 0.368-0.433 0.83-0.925 0.93-1.51s-0.175-1.265-0.416-1.786c-0.308-0.664-0.653-1.611-1.319-1.987-0.611-0.345-1.417-0.152-1.962 0.291-0.941 0.767-1.395 1.966-1.381 3.156 0.005 0.338 0.046 0.676 0.125 1.001 0.19 0.784 0.552 1.518 0.961 2.213 0.307 0.525 0.642 1.036 1.003 1.526 1.18 1.604 2.649 2.997 4.349 4.039 0.85 0.52 1.765 0.977 2.712 1.29 1.063 0.351 2.010 0.716 3.157 0.498 1.201-0.228 2.387-0.971 2.863-2.129 0.141-0.344 0.212-0.725 0.133-1.087-0.164-0.749-1.177-1.194-1.783-1.556z"></path>
</symbol>
<symbol id="icon-close-btn" viewBox="0 0 33 32">
<path fill="none" stroke="#3b4a3f" style="stroke: var(--color2, #3b4a3f)" stroke-linejoin="miter" stroke-linecap="round" stroke-miterlimit="4" stroke-width="3.6923" d="M3.842 2.462l26.446 26.446"></path>
<path fill="none" stroke="#3b4a3f" style="stroke: var(--color2, #3b4a3f)" stroke-linejoin="miter" stroke-linecap="round" stroke-miterlimit="4" stroke-width="3.6923" d="M2.943 28.958l26.446-26.446"></path>
</symbol>
<symbol id="icon-you-tobe" viewBox="0 0 45 32">
<path fill="#fff" style="fill: var(--color1, #fff)" d="M30.378 16.848l-10.898 5.392c-0.428 0.23-1.879-0.079-1.879-0.565v-11.067c0-0.492 1.464-0.801 1.891-0.558l10.432 5.675c0.437 0.249 0.896 0.883 0.454 1.123zM44.668 10.345c0-5.249-4.255-9.503-9.503-9.503h-24.302c-5.249 0-9.502 4.255-9.502 9.503v11.309c0 5.25 4.254 9.503 9.502 9.503h24.302c5.248 0 9.503-4.254 9.503-9.503v-11.309z"></path>
</symbol>
<symbol id="icon-tik-tok" viewBox="0 0 27 32">
<path fill="#fff" style="fill: var(--color1, #fff)" d="M26.693 13.108c-0.248 0.024-0.497 0.036-0.746 0.038-2.73 0-5.276-1.376-6.771-3.66v12.462c0 5.088-4.125 9.211-9.211 9.211-5.088 0-9.211-4.123-9.211-9.211s4.123-9.21 9.211-9.21c0.192 0 0.38 0.017 0.569 0.029v4.539c-0.189-0.023-0.375-0.057-0.569-0.057-2.597 0-4.701 2.105-4.701 4.7 0 2.597 2.104 4.701 4.701 4.701s4.889-2.046 4.889-4.642l0.046-21.165h4.342c0.409 3.894 3.548 6.936 7.454 7.221v5.045z"></path>
</symbol>
<symbol id="icon-pitnerest" viewBox="0 0 25 32">
<path fill="#fff" style="fill: var(--color1, #fff)" d="M10.675 20.618c-0.026 0.087-0.049 0.16-0.069 0.234-1.114 4.362-1.237 5.331-2.381 7.358-0.547 0.962-1.161 1.875-1.841 2.749-0.077 0.099-0.148 0.225-0.302 0.195-0.168-0.036-0.181-0.187-0.2-0.321-0.183-1.325-0.284-2.655-0.24-3.993 0.057-1.744 0.273-2.342 2.521-11.794 0.033-0.144-0.003-0.263-0.051-0.394-0.538-1.451-0.644-2.924-0.175-4.416 1.017-3.224 4.672-3.471 5.311-0.811 0.393 1.645-0.648 3.797-1.447 6.98-0.662 2.626 2.428 4.492 5.071 2.576 2.435-1.767 3.381-6.004 3.201-9.006-0.354-5.986-6.917-7.28-11.083-5.352-4.773 2.207-5.859 8.125-3.703 10.829 0.272 0.344 0.483 0.554 0.393 0.904-0.139 0.541-0.261 1.086-0.41 1.625-0.111 0.4-0.447 0.547-0.853 0.381-0.794-0.321-1.457-0.827-1.994-1.494-1.83-2.266-2.354-6.751 0.066-10.546 2.682-4.206 7.67-5.907 12.224-5.39 5.439 0.618 8.877 4.335 9.521 8.55 0.293 1.921 0.082 6.657-2.613 10.004-3.103 3.846-8.13 4.101-10.45 1.74-0.178-0.181-0.321-0.393-0.496-0.609z"></path>
</symbol>
<symbol id="icon-twitter" viewBox="0 0 39 32">
<path fill="#fff" style="fill: var(--color1, #fff)" d="M37.76 4.476c-1.17 0.53-2.463 0.85-3.725 1.062 0.599-0.1 1.479-1.185 1.832-1.624 0.538-0.668 0.984-1.431 1.236-2.254 0.032-0.064 0.057-0.145-0.008-0.194-0.081-0.032-0.133-0.015-0.197 0.016-1.41 0.755-2.866 1.302-4.417 1.691-0.129 0.032-0.224 0-0.305-0.081-0.128-0.145-0.249-0.282-0.386-0.394-0.652-0.554-1.351-0.99-2.139-1.311-1.035-0.422-2.166-0.601-3.281-0.529-1.086 0.071-2.151 0.376-3.113 0.879-0.965 0.504-1.826 1.206-2.512 2.051-0.709 0.876-1.231 1.908-1.499 3.004-0.257 1.057-0.236 2.103-0.079 3.171 0.024 0.177 0.008 0.201-0.152 0.177-6.066-0.903-11.093-3.073-15.175-7.724-0.177-0.202-0.273-0.202-0.418 0.015-1.786 2.678-0.92 6.978 1.311 9.092 0.298 0.283 0.603 0.564 0.933 0.821-0.121 0.025-1.605-0.135-2.929-0.821-0.176-0.112-0.266-0.047-0.282 0.153-0.016 0.29 0.009 0.556 0.048 0.87 0.343 2.714 2.223 5.223 4.797 6.203 0.305 0.129 0.643 0.241 0.973 0.297-0.586 0.128-1.19 0.22-2.872 0.088-0.209-0.039-0.289 0.065-0.209 0.266 1.265 3.444 3.991 4.469 6.035 5.053 0.273 0.048 0.548 0.048 0.822 0.112-0.017 0.025-0.033 0.025-0.050 0.049-0.677 1.032-3.026 1.801-4.12 2.183-1.99 0.696-4.156 1.009-6.259 0.801-0.336-0.050-0.407-0.045-0.498 0-0.093 0.057-0.013 0.138 0.096 0.225 0.427 0.282 0.861 0.531 1.304 0.773 1.335 0.708 2.727 1.272 4.184 1.673 7.519 2.076 15.988 0.55 21.633-5.059 4.433-4.405 5.988-10.48 5.988-16.562 0-0.238 0.281-0.369 0.447-0.495 1.154-0.866 2.085-1.904 2.945-3.061 0.194-0.26 0.195-0.492 0.195-0.587 0-0.016 0-0.032 0-0.032 0-0.098-0.002-0.068-0.151 0z"></path>
</symbol>
<symbol id="icon-instagram" viewBox="0 0 32 32">
<path fill="#fff" style="fill: var(--color1, #fff)" d="M24.262 6.255c-0.982 0-1.778 0.796-1.778 1.777s0.796 1.778 1.778 1.778c0.981 0 1.777-0.796 1.777-1.778s-0.796-1.777-1.777-1.777z"></path>
<path fill="#fff" style="fill: var(--color1, #fff)" d="M16.36 20.782c-2.637 0-4.783-2.145-4.783-4.782s2.145-4.783 4.783-4.783c2.636 0 4.782 2.145 4.782 4.783s-2.146 4.782-4.782 4.782zM16.36 8.534c-4.117 0-7.466 3.349-7.466 7.466s3.349 7.465 7.466 7.465c4.116 0 7.465-3.349 7.465-7.465s-3.349-7.466-7.465-7.466z"></path>
<path fill="#fff" style="fill: var(--color1, #fff)" d="M10.185 3.694c-3.449 0-6.254 2.805-6.254 6.254v12.103c0 3.449 2.805 6.254 6.254 6.254h12.103c3.449 0 6.255-2.805 6.255-6.254v-12.103c0-3.449-2.806-6.254-6.255-6.254h-12.103zM22.288 31.158h-12.103c-5.022 0-9.105-4.085-9.105-9.106v-12.103c0-5.022 4.084-9.106 9.105-9.106h12.103c5.021 0 9.106 4.084 9.106 9.106v12.103c0 5.021-4.085 9.106-9.106 9.106z"></path>
</symbol>
<symbol id="icon-facebook" viewBox="0 0 17 32">
<path fill="#fff" style="fill: var(--color1, #fff)" d="M15.174 17.895l0.841-5.486h-5.264v-3.561c0-1.501 0.735-2.964 3.093-2.964h2.393v-4.671c0 0-2.171-0.37-4.248-0.37-4.336 0-7.169 2.627-7.169 7.384v4.182h-4.82v5.486h4.82v13.263h5.931v-13.263h4.423z"></path>
</symbol>
<symbol id="icon-start" viewBox="0 0 45 32">
<path fill="#fff" style="fill: var(--color1, #fff)" d="M25.454 7.901c0.778-0.78 1.26-1.857 1.26-3.047 0-2.382-1.932-4.314-4.314-4.314-1.506 0-2.83 0.773-3.602 1.943-0.205 0.205-17.378 21.371-17.538 21.614-0.778 0.78-1.26 1.857-1.26 3.046 0 2.383 1.931 4.314 4.314 4.314 1.506 0 2.83-0.773 3.602-1.943 0.205-0.205 17.378-21.371 17.538-21.614z"></path>
<path fill="#fff" style="fill: var(--color1, #fff)" d="M35.39 17.945c0.781-0.781 1.263-1.859 1.263-3.050 0-2.382-1.931-4.314-4.314-4.314-1.507 0-2.832 0.774-3.603 1.945-0.207 0.207-9.226 11.325-9.388 11.57-0.781 0.781-1.263 1.859-1.263 3.050 0 2.383 1.931 4.314 4.314 4.314 1.507 0 2.832-0.774 3.603-1.945 0.207-0.207 9.226-11.325 9.388-11.57z"></path>
<path fill="#fff" style="fill: var(--color1, #fff)" d="M44.8 4.854c0 2.383-1.932 4.314-4.314 4.314s-4.314-1.931-4.314-4.314c0-2.382 1.931-4.314 4.314-4.314s4.314 1.931 4.314 4.314z"></path>
<path fill="#fff" style="fill: var(--color1, #fff)" d="M8.628 4.854c0 2.383-1.931 4.314-4.314 4.314s-4.314-1.931-4.314-4.314c0-2.382 1.931-4.314 4.314-4.314s4.314 1.931 4.314 4.314z"></path>
</symbol>
<symbol id="icon-burger" viewBox="0 0 31 32">
<path fill="#fff" style="fill: var(--color1, #fff)" d="M4.861 23.778c0-0.258 0.102-0.505 0.285-0.687s0.43-0.285 0.687-0.285h19.444c0.258 0 0.505 0.102 0.687 0.285s0.285 0.43 0.285 0.687c0 0.258-0.102 0.505-0.285 0.687s-0.43 0.285-0.687 0.285h-19.444c-0.258 0-0.505-0.102-0.687-0.285s-0.285-0.43-0.285-0.687zM4.861 16c0-0.258 0.102-0.505 0.285-0.687s0.43-0.285 0.687-0.285h19.444c0.258 0 0.505 0.102 0.687 0.285s0.285 0.43 0.285 0.687c0 0.258-0.102 0.505-0.285 0.687s-0.43 0.285-0.687 0.285h-19.444c-0.258 0-0.505-0.102-0.687-0.285s-0.285-0.43-0.285-0.687zM4.861 8.222c0-0.258 0.102-0.505 0.285-0.687s0.43-0.285 0.687-0.285h19.444c0.258 0 0.505 0.102 0.687 0.285s0.285 0.43 0.285 0.687c0 0.258-0.102 0.505-0.285 0.687s-0.43 0.285-0.687 0.285h-19.444c-0.258 0-0.505-0.102-0.687-0.285s-0.285-0.43-0.285-0.687z"></path>
</symbol>
</defs>
</svg>
